<svg width="20" height="20" viewBox="0 0 20 20" fill="none" xmlns="http://www.w3.org/2000/svg">
<path d="M7.50001 8.50001H10C10.2652 8.50001 10.5196 8.39465 10.7071 8.20711C10.8947 8.01958 11 7.76522 11 7.50001C11 7.23479 10.8947 6.98044 10.7071 6.7929C10.5196 6.60536 10.2652 6.50001 10 6.50001H9.00001V6.00001C9.00001 5.73479 8.89465 5.48044 8.70711 5.2929C8.51958 5.10536 8.26522 5.00001 8.00001 5.00001C7.73479 5.00001 7.48044 5.10536 7.2929 5.2929C7.10537 5.48044 7.00001 5.73479 7.00001 6.00001V6.55001C6.39243 6.67338 5.85237 7.01811 5.48466 7.51727C5.11696 8.01643 4.94785 8.63442 5.01015 9.25126C5.07246 9.86809 5.36174 10.4398 5.82184 10.8553C6.28194 11.2709 6.88003 11.5006 7.50001 11.5H8.50001C8.63262 11.5 8.75979 11.5527 8.85356 11.6465C8.94733 11.7402 9.00001 11.8674 9.00001 12C9.00001 12.1326 8.94733 12.2598 8.85356 12.3536C8.75979 12.4473 8.63262 12.5 8.50001 12.5H6.00001C5.73479 12.5 5.48044 12.6054 5.2929 12.7929C5.10537 12.9804 5.00001 13.2348 5.00001 13.5C5.00001 13.7652 5.10537 14.0196 5.2929 14.2071C5.48044 14.3947 5.73479 14.5 6.00001 14.5H7.00001V15C7.00001 15.2652 7.10537 15.5196 7.2929 15.7071C7.48044 15.8947 7.73479 16 8.00001 16C8.26522 16 8.51958 15.8947 8.70711 15.7071C8.89465 15.5196 9.00001 15.2652 9.00001 15V14.45C9.60758 14.3266 10.1476 13.9819 10.5154 13.4827C10.8831 12.9836 11.0522 12.3656 10.9899 11.7488C10.9276 11.1319 10.6383 10.5602 10.1782 10.1447C9.71807 9.72915 9.11998 9.49938 8.50001 9.50001H7.50001C7.3674 9.50001 7.24022 9.44733 7.14645 9.35356C7.05269 9.25979 7.00001 9.13262 7.00001 9.00001C7.00001 8.8674 7.05269 8.74022 7.14645 8.64645C7.24022 8.55269 7.3674 8.50001 7.50001 8.50001ZM19 10H16V1.00001C16.0007 0.823797 15.9548 0.650531 15.867 0.497753C15.7792 0.344976 15.6526 0.218112 15.5 0.130007C15.348 0.0422391 15.1755 -0.00396729 15 -0.00396729C14.8245 -0.00396729 14.652 0.0422391 14.5 0.130007L11.5 1.85001L8.50001 0.130007C8.34799 0.0422391 8.17554 -0.00396729 8.00001 -0.00396729C7.82447 -0.00396729 7.65203 0.0422391 7.50001 0.130007L4.50001 1.85001L1.50001 0.130007C1.34799 0.0422391 1.17554 -0.00396729 1.00001 -0.00396729C0.824471 -0.00396729 0.652027 0.0422391 0.500008 0.130007C0.347404 0.218112 0.220789 0.344976 0.132986 0.497753C0.0451828 0.650531 -0.000691685 0.823797 7.88288e-06 1.00001V17C7.88288e-06 17.7957 0.316078 18.5587 0.878688 19.1213C1.4413 19.6839 2.20436 20 3.00001 20H17C17.7957 20 18.5587 19.6839 19.1213 19.1213C19.6839 18.5587 20 17.7957 20 17V11C20 10.7348 19.8947 10.4804 19.7071 10.2929C19.5196 10.1054 19.2652 10 19 10ZM3.00001 18C2.73479 18 2.48044 17.8947 2.2929 17.7071C2.10536 17.5196 2.00001 17.2652 2.00001 17V2.73001L4.00001 3.87001C4.15435 3.95062 4.32589 3.99272 4.50001 3.99272C4.67413 3.99272 4.84567 3.95062 5.00001 3.87001L8.00001 2.15001L11 3.87001C11.1543 3.95062 11.3259 3.99272 11.5 3.99272C11.6741 3.99272 11.8457 3.95062 12 3.87001L14 2.73001V17C14.0027 17.3412 14.0636 17.6793 14.18 18H3.00001ZM18 17C18 17.2652 17.8947 17.5196 17.7071 17.7071C17.5196 17.8947 17.2652 18 17 18C16.7348 18 16.4804 17.8947 16.2929 17.7071C16.1054 17.5196 16 17.2652 16 17V12H18V17Z" fill="white" fill-opacity="0.7"/>
</svg>
